<svg width="60" height="60" viewBox="0 0 60 60" fill="none" xmlns="http://www.w3.org/2000/svg">
<path fill-rule="evenodd" clip-rule="evenodd" d="M48.3805 23.5142H42.7608V16H16.536C14.4565 16 12.7896 17.6719 12.7896 19.7571V40.4211H18.1317C18.1317 42.9499 20.1817 45 22.7106 45C25.2395 45 27.2896 42.9499 27.2896 40.4211H41.0264C41.0264 42.9499 43.0765 45 45.6053 45C48.1342 45 50.1843 42.9499 50.1843 40.4211H54.0001V31.0283L48.3805 23.5142ZM47.4439 26.332L51.1153 31.0283H42.7608V26.332H47.4439ZM28.4333 34.9035L36.1787 27.4317L28.3566 20.0402L28.3873 25.9999H17.3636C16.6105 25.9999 16 26.6715 16 27.4999C16 28.3284 16.6105 28.9999 17.3636 28.9999H28.4028L28.4333 34.9035ZM6.5 26C5.67157 26 5 26.6716 5 27.5C5 28.3284 5.67157 29 6.5 29H9.5C10.3284 29 11 28.3284 11 27.5C11 26.6716 10.3284 26 9.5 26H6.5Z" fill="black"/>
</svg>
