<svg width="60" height="60" viewBox="0 0 60 60" fill="none" xmlns="http://www.w3.org/2000/svg">
<path fill-rule="evenodd" clip-rule="evenodd" d="M41.7608 22.5142H47.3805L53.0001 30.0283V39.4211H49.1843C49.1843 41.9499 47.1342 44 44.6053 44C42.0765 44 40.0264 41.9499 40.0264 39.4211H26.2896C26.2896 41.9499 24.2395 44 21.7106 44C19.1817 44 17.1317 41.9499 17.1317 39.4211H13.7896V29H11C10.9846 29 10.9692 28.9998 10.9538 28.9995L10.9261 35L5 26.9656L11 19L10.9723 25.0002L11 25H13.7896V18.7571C13.7896 16.6719 15.4565 15 17.536 15H41.7608V22.5142ZM17 35V29H19C20.1046 29 21 28.1046 21 27C21 25.8954 20.1046 25 19 25H17V19H38V35H17ZM50.1153 30.0283L46.4439 25.332H41.7608V30.0283H50.1153ZM23 27C23 25.8954 23.8954 25 25 25H29C30.1046 25 31 25.8954 31 27C31 28.1046 30.1046 29 29 29H25C23.8954 29 23 28.1046 23 27Z" fill="black"/>
</svg>
